:SAMPLES-PER-SECOND 30
:FULLY-SPECIFIED
:DEGREES
754
root  6.24677 39.176 26.3964 -91.2999 87.6907 -85.4846
RightUpLeg  -3.08452 -9.86723 -0.0299052
RightLeg  17.8829 -1.28835 1.61831
RightFoot  -7.56966 0.00422875 -1.68382
RightToes  5.23868e-010 0 -3.6325e-017
Spine  6.12551 -0.595558 15.6177
Spine1  11.333 2.36237 -4.32901
HEad  -44.5634 30.1627 -31.6141
LeftShoulder1  0.183777 3.00682 -30.858
LeftArm  -1.07742 17.8335 -40.8463
LeftForeArm  30.019 -8.72503 -9.1241
LeftHand  -0.0351057 5.46429 -2.97717
RightShoulder  -0.50173 -4.97538 27.2612
RightArm  16.7977 0.682926 44.7624
RightForeArm  2.17193 11.084 7.59793
RightHand  -0.468595 1.76063 -7.77214
LeftUpLeg  -12.3727 -2.67078 5.28779
LeftLeg  58.0326 -1.43944 -1.95357
LeftFoot  2.53577 0.18715 -1.67477
LeftToes  -4.9204e-010 1.02043e-011 -1.81609e-011
755
root  7.24427 39.2645 26.6926 -102.738 88.1117 -96.82
RightUpLeg  -0.634801 -10.0056 -0.471782
RightLeg  16.8192 -1.48344 1.80929
RightFoot  -8.66992 -0.0205389 -1.62916
RightToes  5.23868e-010 0 -3.6325e-017
Spine  6.23434 -0.250288 15.8747
Spine1  11.0277 2.90633 -5.43079
HEad  -42.2089 30.9871 -31.1429
LeftShoulder1  0.129944 3.15218 -30.8607
LeftArm  -1.6056 19.5089 -40.3403
LeftForeArm  28.449 -8.94216 -8.84124
LeftHand  -0.0281091 5.25138 -2.04425
RightShoulder  -0.50462 -4.99407 27.0344
RightArm  18.5127 0.953107 44.5031
RightForeArm  0.533068 13.0694 7.2538
RightHand  -0.441272 1.93218 -7.15842
LeftUpLeg  -14.331 -2.09721 4.11979
LeftLeg  53.2178 -2.15655 -2.63341
LeftFoot  0.145164 0.106878 -1.06727
LeftToes  -4.9204e-010 1.02043e-011 -1.81609e-011
756
root  8.22486 39.3361 26.9829 -119.461 88.3689 -113.378
RightUpLeg  1.9644 -10.0003 -0.753534
RightLeg  15.4993 -1.79005 1.79295
RightFoot  -9.61601 -0.0422157 -1.52664
RightToes  5.23868e-010 0 -3.6325e-017
Spine  6.05366 0.177934 14.9977
Spine1  11.271 3.04017 -5.07561
HEad  -40.3156 31.6705 -31.1439
LeftShoulder1  0.0526914 3.36314 -31.4596
LeftArm  -2.2884 20.3747 -39.8992
LeftForeArm  27.8853 -9.05061 -8.53883
LeftHand  -0.0294249 5.25139 -2.10935
RightShoulder  -0.476678 -4.92499 26.6713
RightArm  20.3519 1.99613 44.1225
RightForeArm  -1.82204 14.4045 7.09188
RightHand  -0.505236 2.23558 -7.87882
LeftUpLeg  -15.2656 -1.01182 2.90617
LeftLeg  46.0347 -2.5776 -2.4787
LeftFoot  -1.36201 0.0613668 -0.625876
LeftToes  -4.9204e-010 1.02043e-011 -1.81609e-011
757
root  9.17609 39.3978 27.2325 -138.711 88.3269 -132.576
RightUpLeg  4.43952 -9.92443 -0.872877
RightLeg  13.9576 -2.28765 1.7195
RightFoot  -10.3033 -0.0551786 -1.60348
RightToes  5.23868e-010 0 -3.6325e-017
Spine  5.77484 0.436189 14.5584
Spine1  11.6433 3.18292 -5.49709
HEad  -38.1395 32.733 -31.1072
LeftShoulder1  -0.0250555 3.56997 -31.7884
LeftArm  -2.84283 20.688 -39.7931
LeftForeArm  27.8029 -9.23408 -8.282
LeftHand  -0.0590761 6.32385 -2.6449
RightShoulder  -0.428413 -4.80014 26.136
RightArm  20.6518 2.4847 44.4296
RightForeArm  -2.09355 15.8534 6.51413
RightHand  -0.463506 1.8743 -7.5778
LeftUpLeg  -15.3331 1.03973 1.66809
LeftLeg  36.6125 -2.56477 -1.68753
LeftFoot  -1.56401 0.134806 -1.44737
LeftToes  -4.9204e-010 1.02043e-011 -1.81609e-011
758
root  10.1024 39.4175 27.475 -150.361 87.7065 -144.401
RightUpLeg  6.60012 -9.61662 -0.494039
RightLeg  12.4178 -3.32086 1.72117
RightFoot  -10.8581 -0.0662187 -1.74728
RightToes  5.23868e-010 0 -3.6325e-017
Spine  5.56678 0.57213 14.3885
Spine1  11.5373 3.27771 -6.28534
HEad  -36.595 33.9828 -30.4721
LeftShoulder1  -0.00409161 3.51451 -31.4023
LeftArm  -3.22674 20.6068 -40.14
LeftForeArm  28.1204 -8.85891 -8.28021
LeftHand  -0.0330252 5.4517 -2.31839
RightShoulder  -0.420002 -4.7673 26.2972
RightArm  21.5376 2.92275 44.2895
RightForeArm  -4.25693 16.8901 6.30071
RightHand  -0.542509 2.18929 -8.521
LeftUpLeg  -14.9703 4.26716 0.454055
LeftLeg  26.0271 -2.83273 -1.06764
LeftFoot  -0.581905 0.244456 -2.56523
LeftToes  -4.9204e-010 1.02043e-011 -1.81609e-011
759
root  11.0431 39.423 27.6975 -156.488 86.9772 -150.56
RightUpLeg  9.08949 -9.32988 -0.11231
RightLeg  10.541 -4.32335 1.88032
RightFoot  -11.2677 -0.074623 -1.86092
RightToes  5.23868e-010 0 -3.6325e-017
Spine  5.20464 0.815849 13.1907
Spine1  11.8448 3.09806 -5.56317
HEad  -34.7506 35.3908 -29.7375
LeftShoulder1  -0.0518754 3.64109 -31.7131
LeftArm  -3.08683 20.0532 -40.2622
LeftForeArm  28.6411 -8.82665 -8.34396
LeftHand  -0.0289337 5.28987 -2.64725
RightShoulder  -0.400913 -4.72319 25.9043
RightArm  22.0177 3.55133 44.3771
RightForeArm  -4.34683 17.1581 6.25217
RightHand  -0.596978 3.56742 -7.96922
LeftUpLeg  -13.8367 7.78959 -0.857313
LeftLeg  15.0695 -1.68397 -0.73032
LeftFoot  -0.143086 0.31915 -3.24863
LeftToes  -4.9204e-010 1.02043e-011 -1.81609e-011
760
root  11.9972 39.359 27.8907 -158.627 86.0312 -152.726
RightUpLeg  11.4211 -8.93406 0.569413
RightLeg  9.0287 -5.69892 1.96191
RightFoot  -11.9964 -0.0898812 -1.44479
RightToes  5.23868e-010 0 -3.6325e-017
Spine  4.91588 0.838492 12.4089
Spine1  11.89 2.9631 -5.57306
HEad  -32.7776 36.4459 -28.4445
LeftShoulder1  0.00223256 3.49738 -31.293
LeftArm  -2.74872 19.9412 -40.7198
LeftForeArm  28.2456 -9.50176 -8.2525
LeftHand  -0.0465656 5.92493 -2.5531
RightShoulder  -0.496551 -4.97966 26.8025
RightArm  22.1513 4.30553 44.0483
RightForeArm  -3.6826 16.8952 6.33582
RightHand  -0.537543 3.12248 -7.55819
LeftUpLeg  -12.1499 6.41026 -0.866528
LeftLeg  4.68532 5.93505 -1.73724
LeftFoot  -0.0377806 0.421373 -4.25685
LeftToes  -4.9204e-010 1.02043e-011 -1.81609e-011
761
root  13.0092 39.2017 28.0468 -158.788 84.9545 -152.804
RightUpLeg  13.5427 -8.70609 1.32695
RightLeg  8.44037 -6.85108 2.11487
RightFoot  -13.099 -0.107644 -1.28739
RightToes  5.23868e-010 0 -3.6325e-017
Spine  4.45785 0.814641 11.6409
Spine1  12.0463 2.78056 -5.41051
HEad  -31.1831 37.1627 -27.3815
LeftShoulder1  0.0354611 3.40728 -30.8169
LeftArm  -1.34174 19.6525 -41.0365
LeftForeArm  27.4666 -10.6693 -8.26072
LeftHand  -0.0302199 5.26263 -2.76823
RightShoulder  -0.536343 -5.07265 27.3797
RightArm  21.3252 4.31728 44.3247
RightForeArm  -2.55581 16.3767 6.41389
RightHand  -0.500973 2.31711 -7.7188
LeftUpLeg  -10.538 3.78544 -0.930275
LeftLeg  -3.39743 15.0286 -3.24089
LeftFoot  -0.0415584 0.420199 -4.23549
LeftToes  -4.9204e-010 1.02043e-011 -1.81609e-011
762
root  14.0768 38.9627 28.1528 -158.338 83.8158 -152.127
RightUpLeg  15.5439 -8.68782 2.06129
RightLeg  8.61993 -7.92227 2.21275
RightFoot  -14.6981 -0.116355 -0.58286
RightToes  5.23868e-010 0 -3.6325e-017
Spine  3.68529 0.87856 10.6236
Spine1  12.9828 2.47153 -4.27678
HEad  -31.0763 37.1379 -27.1582
LeftShoulder1  -0.0382024 3.60526 -31.6641
LeftArm  0.165883 17.9268 -40.6055
LeftForeArm  26.4503 -11.4392 -8.29534
LeftHand  -0.0134625 4.576 -1.75442
RightShoulder  -0.465165 -4.88439 26.8239
RightArm  18.8155 4.01719 45.4474
RightForeArm  -1.29435 15.0992 6.56969
RightHand  -0.59503 2.61567 -8.83388
LeftUpLeg  -10.0753 3.04915 -1.57449
LeftLeg  -6.1579 20.0202 -3.44192
LeftFoot  -0.173784 0.327785 -3.28758
LeftToes  -4.9204e-010 1.02043e-011 -1.81609e-011
763
root  15.1992 38.7485 28.2474 -159.261 83.1453 -152.837
RightUpLeg  17.5137 -8.93782 2.32307
RightLeg  9.0014 -8.1485 2.21104
RightFoot  -15.9786 -0.0987472 0.24645
RightToes  5.23868e-010 0 -3.6325e-017
Spine  3.21746 0.986555 9.69622
Spine1  13.3856 2.58835 -4.30363
HEad  -30.8073 36.3519 -26.2777
LeftShoulder1  -0.0762629 3.70595 -31.6391
LeftArm  2.51653 17.2999 -40.3162
LeftForeArm  23.6929 -13.6079 -7.70881
LeftHand  -0.00677383 4.36749 -2.10799
RightShoulder  -0.490119 -4.93994 27.28
RightArm  17.2532 3.51817 46.2179
RightForeArm  -0.411553 13.4888 6.91493
RightHand  -0.535934 2.31711 -8.26803
LeftUpLeg  -10.1174 2.9816 -2.16371
LeftLeg  -4.90442 21.3182 -3.15557
LeftFoot  1.63669 0.00688583 -0.32795
LeftToes  -4.9204e-010 1.02043e-011 -1.81609e-011
764
root  16.361 38.5898 28.2917 -162.47 83.2224 -155.858
RightUpLeg  19.4077 -10.2677 1.27931
RightLeg  9.85961 -6.47102 2.10093
RightFoot  -16.94 -0.0452129 1.40534
RightToes  5.23868e-010 0 -3.6325e-017
Spine  2.80857 1.39642 8.87324
Spine1  13.8121 3.32415 -5.32427
HEad  -31.5529 35.6193 -25.7467
LeftShoulder1  -0.130973 3.8525 -31.4349
LeftArm  4.16004 16.0295 -40.0775
LeftForeArm  21.6991 -15.0073 -7.23002
LeftHand  -0.00984397 4.38959 -1.69943
RightShoulder  -0.523236 -5.01937 27.7049
RightArm  15.2938 2.68978 47.3145
RightForeArm  0.827276 11.3851 7.25727
RightHand  -0.535674 2.49157 -8.09395
LeftUpLeg  -11.4883 3.16598 -2.89031
LeftLeg  0.316722 18.4833 -1.60513
LeftFoot  5.76143 -1.21331 7.68262
LeftToes  -4.9204e-010 1.02043e-011 -1.81609e-011
765
root  17.572 38.4384 28.3208 -174.042 83.3224 -167.106
RightUpLeg  21.0499 -13.0507 -1.35755
RightLeg  12.1746 -3.04162 1.26829
RightFoot  -18.0484 0.10581 3.82398
RightToes  5.23868e-010 0 -3.6325e-017
Spine  2.74954 1.7465 6.61916
Spine1  13.6289 3.78672 -5.93629
HEad  -31.7359 35.1991 -24.9601
LeftShoulder1  -0.141296 3.88107 -31.3395
LeftArm  4.19451 15.0798 -39.7092
LeftForeArm  19.7343 -16.1195 -6.61951
LeftHand  -0.00788719 3.82395 -1.01529
RightShoulder  -0.58941 -5.16761 28.6566
RightArm  14.2195 1.92599 48.1557
RightForeArm  2.89663 9.0993 7.59878
RightHand  -0.498826 1.76892 -8.23841
LeftUpLeg  -12.7241 3.47059 -4.18368
LeftLeg  6.33299 17.3028 -0.141547
LeftFoot  8.79193 -2.32874 12.8505
LeftToes  -4.9204e-010 1.02043e-011 -1.81609e-011
